<svg width="60" height="60" viewBox="0 0 60 60" fill="none" xmlns="http://www.w3.org/2000/svg">
<path d="M56 3H10C7.79087 3 6 4.79087 6 7V39H1C0.44775 39 0 39.4478 0 40C0 42.2091 1.79087 44 4 44H33V56C33.0001 56.5522 33.4479 56.9999 34.0003 56.9997C34.2654 56.9997 34.5195 56.8944 34.707 56.707L40 51.414L45.293 56.707C45.4805 56.8945 45.7347 57 46 57C46.1315 57.0004 46.2616 56.9746 46.383 56.924C46.7566 56.7691 47.0001 56.4044 47 56V44H50C52.2091 44 54 42.2091 54 40V8H59C59.5522 8 60 7.55225 60 7C60 4.79087 58.2091 3 56 3ZM52 7V39H48V41H51.731C51.3739 41.6185 50.7141 41.9996 50 42H47V41H45V53.586L40.707 49.293C40.3165 48.9026 39.6835 48.9026 39.293 49.293L35 53.586V41H33V42H4C3.28588 41.9996 2.62613 41.6185 2.269 41H7H32V39H8V7C8 5.89538 8.89538 5 10 5H52.556C52.1961 5.60538 52.0041 6.29575 52 7ZM54.269 6C54.8223 5.044 56.0458 4.7175 57.0019 5.27087C57.3045 5.446 57.5559 5.6975 57.731 6H54.269Z" fill="#3E86FF"/>
<path d="M49.4275 34.295L48.1465 32L49.4325 29.707C49.7035 29.2257 49.5331 28.616 49.052 28.345C49.0277 28.3313 49.0028 28.3186 48.9775 28.307L46.5905 27.214L46.2825 24.604C46.2173 24.0556 45.7198 23.6638 45.1715 23.729C45.146 23.732 45.1206 23.736 45.0955 23.741L42.5174 24.252L40.7344 22.321C40.3353 21.9156 39.6832 21.9105 39.2778 22.3096C39.2739 22.3133 39.2702 22.3172 39.2664 22.321L37.4834 24.252L34.9054 23.741C34.3637 23.6338 33.8376 23.9862 33.7304 24.528C33.7254 24.5531 33.7214 24.5785 33.7184 24.604L33.4104 27.214L31.0234 28.309C30.5213 28.5388 30.3006 29.1323 30.5304 29.6345C30.5421 29.6598 30.5547 29.6847 30.5684 29.709L31.8544 32L30.5684 34.293C30.2974 34.7742 30.4678 35.384 30.9489 35.655C30.9732 35.6686 30.9981 35.6813 31.0234 35.693L33.4104 36.788L33.7184 39.4C33.7836 39.9483 34.2811 40.3401 34.8294 40.275C34.8549 40.272 34.8803 40.268 34.9054 40.263L37.4834 39.752L39.2664 41.683C39.6416 42.0883 40.2742 42.1128 40.6796 41.7378C40.6986 41.7202 40.7168 41.702 40.7344 41.683L42.5174 39.752L45.0955 40.263C45.3687 40.3188 45.6528 40.2563 45.8775 40.091C46.101 39.9262 46.2458 39.6758 46.2775 39.4L46.5855 36.79L48.9725 35.695C49.4746 35.4651 49.6953 34.8716 49.4655 34.3695C49.4538 34.3441 49.4411 34.3192 49.4275 34.295ZM46.1285 32.488L47.1575 34.324L45.2455 35.201C44.9285 35.3465 44.7102 35.6466 44.6695 35.993L44.4235 38.086L42.3564 37.677C42.0158 37.6062 41.6632 37.7202 41.4284 37.977L40.0004 39.525L38.5724 37.979C38.3832 37.7743 38.1172 37.658 37.8384 37.658C37.7732 37.6576 37.7082 37.6643 37.6444 37.678L35.5774 38.087L35.3314 35.994C35.2907 35.6476 35.0724 35.3475 34.7554 35.202L32.8434 34.325L33.8724 32.489C34.0444 32.184 34.0486 31.8136 33.8724 31.511V31.515L32.8434 29.679L34.7554 28.802C35.0724 28.6565 35.2907 28.3563 35.3314 28.01L35.5774 25.917L37.6444 26.326C37.9849 26.3958 38.3372 26.282 38.5724 26.026L40.0004 24.475L41.4284 26.021C41.6631 26.2778 42.0158 26.3918 42.3564 26.321L44.4235 25.912L44.6695 28.005C44.7102 28.3513 44.9285 28.6515 45.2455 28.797L47.1575 29.674L46.1285 31.51C45.9582 31.8137 45.9582 32.1842 46.1285 32.488Z" fill="#3E86FF"/>
<path d="M40 27C37.2386 27 35 29.2386 35 32C35.0033 34.76 37.24 36.9966 40 37C42.7614 37 45 34.7614 45 32C45 29.2386 42.7614 27 40 27ZM40 35C38.3431 35 37 33.6569 37 32C37 30.3431 38.3431 29 40 29C41.6569 29 43 30.3431 43 32C43 33.6569 41.6569 35 40 35Z" fill="#3E86FF"/>
<path d="M38 9H22V11H38V9Z" fill="#3E86FF"/>
<path d="M48 15H12V17H48V15Z" fill="#3E86FF"/>
<path d="M48 19H12V21H48V19Z" fill="#3E86FF"/>
<path d="M26 32H13V34H26V32Z" fill="#3E86FF"/>
</svg>
