<svg width="60" height="41" viewBox="0 0 60 41" fill="none" xmlns="http://www.w3.org/2000/svg">
<path d="M55.2024 6.00841H57.981C58.7667 6.01116 59.4813 5.55462 59.8085 4.84094C60.1381 4.15521 60.0364 3.34022 59.5482 2.75717C58.0841 0.969512 55.8798 -0.0462437 53.5696 0.00188555C51.2594 0.0504732 49.0996 1.15745 47.7116 3.00423H43.8764C43.5143 1.56494 42.3803 0.446966 40.9355 0.106395C39.4907 -0.234635 37.9767 0.258116 37.0091 1.38434C36.2582 0.506097 35.1609 5.20548e-05 34.0053 5.20548e-05C32.8498 5.20548e-05 31.752 0.506097 31.0012 1.38434C30.2503 0.506097 29.1525 5.20548e-05 27.9974 5.20548e-05C26.8419 5.20548e-05 25.7441 0.506097 24.9932 1.38434C24.0261 0.258116 22.5116 -0.234635 21.0673 0.106395C19.6225 0.446966 18.488 1.56494 18.1259 3.00423H12.2885C10.9001 1.15699 8.74024 0.0500149 6.43004 0.00188555C4.11984 -0.0462437 1.91552 0.969971 0.451476 2.75809C-0.0362338 3.34114 -0.137993 4.15567 0.191119 4.84094C0.518856 5.55462 1.23346 6.01116 2.01865 6.00841H4.79731C5.88962 5.97862 6.82745 6.7794 6.96909 7.86299C7.0108 8.44375 6.79811 9.01397 6.3865 9.42605C6.01109 9.80466 5.49954 10.0164 4.96645 10.0137H2.08053C1.29488 10.0068 0.579362 10.467 0.260334 11.1853C-0.0729037 11.9132 0.0581912 12.7699 0.593571 13.3653C2.07458 15.0677 4.24131 16.0161 6.49696 15.9487C8.75216 15.8813 10.8584 14.8055 12.2353 13.0179H13.9015L12.5489 16.3993C12.1185 17.492 12.1845 18.7182 12.7299 19.7587L18.774 29.4877C18.9125 29.7655 18.9849 30.0721 18.9853 30.3829V38.051C18.9853 39.1571 19.8819 40.0537 20.988 40.0537H35.0064C36.1125 40.0537 37.0091 39.1571 37.0091 38.051V32.7999C37.0095 32.491 37.081 32.1857 37.2185 31.9088L40.9497 26.88C42.681 24.6239 43.7325 21.9199 43.9805 19.0867C44.0057 18.7333 44.0185 18.3799 44.0185 18.0242V13.0179H47.7643C49.1413 14.8051 51.2475 15.8809 53.5027 15.9478C55.7579 16.0152 57.9242 15.0673 59.4052 13.3653C59.941 12.7699 60.0721 11.9136 59.7393 11.1853C59.4203 10.467 58.7052 10.0068 57.9191 10.0137H55.0332C54.502 10.0151 53.9922 9.80329 53.6182 9.42605C53.2066 9.01397 52.9939 8.44375 53.0356 7.86299C53.1773 6.78123 54.1119 5.98137 55.2024 6.00841ZM40.0132 2.00314C41.1193 2.00314 42.0159 2.89972 42.0159 4.00578V11.0152C42.0159 12.1208 41.1193 13.0179 40.0132 13.0179C38.9072 13.0179 38.0106 12.1208 38.0106 11.0152V4.00578C38.0106 2.89972 38.9072 2.00314 40.0132 2.00314ZM34.0053 2.00314C35.1114 2.00314 36.008 2.89972 36.008 4.00578V11.0152C36.008 12.1208 35.1114 13.0179 34.0053 13.0179C32.8993 13.0179 32.0027 12.1208 32.0027 11.0152V4.00578C32.0027 2.89972 32.8993 2.00314 34.0053 2.00314ZM27.9974 2.00314C29.1035 2.00314 30.0001 2.89972 30.0001 4.00578V7.20981C29.665 7.08147 29.3102 7.01363 28.9513 7.0095H25.9948V4.00578C25.9948 2.89972 26.8914 2.00314 27.9974 2.00314ZM21.9891 2.00314C23.0951 2.00314 23.9917 2.89972 23.9917 4.00578V7.0095H19.9864V4.00578C19.9864 2.89972 20.883 2.00314 21.9891 2.00314ZM6.26823 13.9488C4.66851 13.9397 3.149 13.2448 2.09566 12.0402L1.34576 12.7034L2.08053 12.0163H4.96645C6.07984 12.0163 7.14281 11.5534 7.90096 10.7379C8.65865 9.92292 9.04323 8.82879 8.9621 7.71861C8.75399 5.58442 6.94113 3.96819 4.79731 4.00578L1.99344 4.0397C3.04495 2.759 4.61167 2.01231 6.26823 2.00314C9.49014 2.08015 12.0424 4.7488 11.9759 7.97117C12.0451 11.1958 9.49289 13.8691 6.26823 13.9488ZM13.3927 11.0152C14.1642 9.08823 14.1743 6.94029 13.4198 5.00687H17.9838V7.32028C16.6435 7.80111 15.5732 8.83429 15.0452 10.1567L14.7028 11.0152H13.3927ZM41.9829 18.9446C41.761 21.3974 40.8447 23.736 39.3413 25.6864L35.5624 30.7794C35.534 30.8183 35.5083 30.8591 35.4854 30.9013C35.1705 31.4862 35.006 32.1398 35.0064 32.804V38.051H20.988V30.3829C20.9843 29.7306 20.8239 29.0889 20.5204 28.5114L14.4791 18.7833C14.2233 18.2717 14.1986 17.6754 14.4112 17.1441L16.9085 10.9006C17.3613 9.75791 18.4678 9.00847 19.6972 9.01214H28.9513C29.2511 9.01214 29.5353 9.14415 29.7287 9.37288C29.9134 9.58877 29.9932 9.87571 29.946 10.1558C29.5114 12.7172 27.8452 14.019 24.9932 14.019H21.9891C21.505 14.0185 21.0902 14.3646 21.0031 14.8408C20.9165 15.3171 21.1828 15.7874 21.6357 15.9574C21.7099 15.9858 28.9985 18.8154 28.9985 25.0337C28.9985 25.5865 29.4468 26.0352 30.0001 26.0352C30.5529 26.0352 31.0012 25.5865 31.0012 25.0337C31.0012 20.6278 28.2257 17.7038 25.8151 15.9918C27.7948 15.962 29.6421 14.9939 30.793 13.3832C31.5049 14.3655 32.6275 14.9678 33.8399 15.0173C35.0518 15.0668 36.2197 14.558 37.0091 13.6367C38.2517 15.0989 40.3694 15.4486 42.0159 14.4636V18.0242C42.0159 18.3318 42.0049 18.6394 41.9829 18.9446ZM44.0185 11.0152V5.00687H46.5799C45.8259 6.94029 45.8355 9.08823 46.6069 11.0152H44.0185ZM52.2023 10.842C52.9513 11.5955 53.9707 12.0186 55.0332 12.0163L57.904 12.0402C56.8507 13.2448 55.3316 13.9397 53.7314 13.9488C50.5068 13.8691 47.9546 11.1958 48.0238 7.97117C47.9573 4.7488 50.5095 2.08015 53.7314 2.00314C55.3761 2.0091 56.9336 2.74204 57.9861 4.00578H55.2024C53.0585 3.96819 51.2457 5.58442 51.038 7.71861C50.9546 8.87921 51.3795 10.0187 52.2023 10.842Z" fill="#3E86FF"/>
</svg>
