<svg width="65" height="65" viewBox="0 0 65 65" fill="none" xmlns="http://www.w3.org/2000/svg">
<path d="M32.5 65C50.4493 65 65 50.4493 65 32.5C65 14.5507 50.4493 0 32.5 0C14.5507 0 0 14.5507 0 32.5C0 50.4493 14.5507 65 32.5 65Z" fill="#FBFCFC"/>
<path fill-rule="evenodd" clip-rule="evenodd" d="M33.5 19C31.0277 19 28.611 19.7331 26.5554 21.1066C24.4998 22.4801 22.8976 24.4324 21.9515 26.7165C21.0054 29.0005 20.7579 31.5139 21.2402 33.9386C21.7225 36.3634 22.9129 38.5907 24.6611 40.3388C26.4092 42.087 28.6366 43.2775 31.0614 43.7598C33.4861 44.2421 35.9995 43.9946 38.2835 43.0485C40.5676 42.1024 42.5198 40.5002 43.8933 38.4446C45.2668 36.389 46 33.9723 46 31.5C45.9957 28.1861 44.6774 25.0091 42.3341 22.6658C39.9908 20.3226 36.8139 19.0042 33.5 19ZM33.5 41.341C31.5538 41.341 29.6513 40.7639 28.0332 39.6827C26.415 38.6014 25.1538 37.0646 24.409 35.2666C23.6643 33.4686 23.4694 31.4901 23.8491 29.5813C24.2288 27.6725 25.1659 25.9192 26.5421 24.5431C27.9182 23.1669 29.6715 22.2298 31.5803 21.8501C33.4891 21.4704 35.4676 21.6653 37.2656 22.41C39.0636 23.1548 40.6004 24.416 41.6816 26.0342C42.7628 27.6524 43.3399 29.5548 43.3399 31.501C43.3375 34.1099 42.3 36.6113 40.4552 38.4559C38.6103 40.3006 36.1089 41.3379 33.5 41.34V41.341ZM40.01 31.115H34.4V24.359C34.4 24.0858 34.2914 23.8238 34.0982 23.6307C33.9051 23.4375 33.6431 23.329 33.37 23.329C33.0968 23.329 32.8348 23.4375 32.6417 23.6307C32.4485 23.8238 32.3399 24.0858 32.3399 24.359V32.143C32.3399 32.2782 32.3666 32.4121 32.4184 32.537C32.4702 32.6619 32.546 32.7754 32.6417 32.871C32.7373 32.9665 32.851 33.0423 32.9759 33.094C33.1009 33.1456 33.2347 33.1721 33.37 33.172H40.01C40.1451 33.172 40.2789 33.1454 40.4038 33.0937C40.5286 33.042 40.6421 32.9662 40.7376 32.8706C40.8332 32.7751 40.9089 32.6616 40.9607 32.5368C41.0124 32.4119 41.0389 32.2781 41.0389 32.143C41.0389 32.0079 41.0124 31.8741 40.9607 31.7492C40.9089 31.6244 40.8332 31.5109 40.7376 31.4154C40.6421 31.3198 40.5286 31.244 40.4038 31.1923C40.2789 31.1406 40.1451 31.114 40.01 31.114V31.115Z" fill="#FDB415"/>
</svg>
