<svg width="65" height="65" viewBox="0 0 65 65" fill="none" xmlns="http://www.w3.org/2000/svg">
<path d="M32.5 65C50.4493 65 65 50.4493 65 32.5C65 14.5507 50.4493 0 32.5 0C14.5507 0 0 14.5507 0 32.5C0 50.4493 14.5507 65 32.5 65Z" fill="#FBFCFC"/>
<path d="M44.4395 39.7291L40.5787 35.8678C39.8097 35.1019 38.5362 35.1251 37.7404 35.9212L35.7952 37.8659C35.6723 37.7982 35.5451 37.7274 35.4114 37.6524C34.1831 36.9718 32.5019 36.0389 30.7329 34.2686C28.9585 32.4945 28.0248 30.8107 27.3422 29.5816C27.2701 29.4514 27.2011 29.3258 27.1329 29.2066L28.4384 27.9031L29.0802 27.2605C29.8772 26.4633 29.8992 25.1901 29.132 24.422L25.2711 20.5603C24.5039 19.7932 23.2298 19.8164 22.4328 20.6137L21.3447 21.7081L21.3744 21.7376C21.0096 22.2031 20.7047 22.7401 20.4778 23.3191C20.2686 23.8703 20.1384 24.3963 20.0789 24.9233C19.5691 29.1497 21.5004 33.0122 26.7418 38.2537C33.9869 45.4983 39.8256 44.951 40.0775 44.9243C40.6261 44.8588 41.1518 44.7277 41.6861 44.5202C42.2601 44.2959 42.7967 43.9915 43.262 43.6274L43.2857 43.6485L44.3881 42.5691C45.1835 41.772 45.2064 40.4984 44.4395 39.7291Z" fill="#FDB415"/>
</svg>
