<svg width="101" height="100" viewBox="0 0 101 100" fill="none" xmlns="http://www.w3.org/2000/svg">
<ellipse cx="50.2059" cy="50" rx="49.9286" ry="50" fill="#FDB415"/>
<g clip-path="url(#clip0)">
<path d="M63.2151 30H37.2042C33.3539 30 30.243 33.125 30.2334 36.9712V63.0192C30.2334 66.875 33.3539 69.9904 37.1946 70H63.2055C67.0557 70 70.1667 66.875 70.1763 63.0288V36.9808C70.1763 33.125 67.0557 30 63.2151 30ZM68.2559 63.0288C68.2559 65.8173 65.9995 68.0769 63.2151 68.0769H37.2042C34.4197 68.0769 32.1633 65.8173 32.1537 63.0288V36.9808C32.1537 34.1923 34.4101 31.9327 37.1946 31.9231H63.2055C65.9899 31.9231 68.2463 34.1827 68.2559 36.9712V63.0288Z" fill="black"/>
<path d="M45.2028 57.0193H41.6598V54.0097C41.6598 53.4808 41.2278 53.0481 40.6997 53.0481C40.1716 53.0481 39.7395 53.4808 39.7395 54.0097V57.0193H36.1965C35.6684 57.0193 35.2363 57.452 35.2363 57.9808C35.2363 58.5097 35.6684 58.9424 36.1965 58.9424H39.7395V62.5289C39.7395 63.0578 40.1716 63.4905 40.6997 63.4905C41.2278 63.4905 41.6598 63.0578 41.6598 62.5289V58.9424H45.2028C45.7309 58.9424 46.163 58.5097 46.163 57.9808C46.163 57.452 45.7309 57.0193 45.2028 57.0193Z" fill="black"/>
<path d="M45.2028 40.4808H36.1965C35.6684 40.4808 35.2363 40.9135 35.2363 41.4423C35.2363 41.9711 35.6684 42.4038 36.1965 42.4038H45.2028C45.7309 42.4038 46.163 41.9711 46.163 41.4423C46.163 40.9135 45.7309 40.4808 45.2028 40.4808Z" fill="black"/>
<path d="M63.215 60.0961H54.2087C53.6806 60.0961 53.2485 60.5288 53.2485 61.0577C53.2485 61.5865 53.6806 62.0192 54.2087 62.0192H63.215C63.7431 62.0192 64.1752 61.5865 64.1752 61.0577C64.1752 60.5288 63.7431 60.0961 63.215 60.0961Z" fill="black"/>
<path d="M63.215 55.5769H54.2087C53.6806 55.5769 53.2485 56.0096 53.2485 56.5384C53.2485 57.0673 53.6806 57.5 54.2087 57.5H63.215C63.7431 57.5 64.1752 57.0673 64.1752 56.5384C64.1752 56.0096 63.7431 55.5769 63.215 55.5769Z" fill="black"/>
<path d="M62.8402 43.875C62.8402 43.875 62.8402 43.875 62.8306 43.8654L60.2573 41.2885L62.8306 38.7115C63.205 38.3365 63.205 37.7308 62.8306 37.3558C62.4561 36.9808 61.8512 36.9808 61.4767 37.3558L58.9035 39.9327L56.3302 37.3558C55.9558 36.9808 55.3509 36.9808 54.9764 37.3462C54.6019 37.7212 54.6019 38.3269 54.9668 38.7019C54.9668 38.7019 54.9668 38.7019 54.9764 38.7115L57.5496 41.2885L54.9764 43.8654C54.6019 44.2308 54.6019 44.8461 54.9764 45.2211C55.3509 45.5961 55.9558 45.5961 56.3302 45.2211L58.9035 42.6442L61.4767 45.2211C61.8512 45.5961 62.4561 45.5961 62.8306 45.2308C63.205 44.8558 63.205 44.25 62.8402 43.875Z" fill="black"/>
</g>
<defs>
<clipPath id="clip0">
<rect x="30.2334" y="30" width="39.9429" height="40" fill="white"/>
</clipPath>
</defs>
</svg>
