<svg width="100" height="100" viewBox="0 0 100 100" fill="none" xmlns="http://www.w3.org/2000/svg">
<circle cx="50" cy="50" r="50" fill="#FDB415"/>
<path d="M70 50C70 38.9723 61.0277 30 50 30C38.9723 30 30 38.9723 30 50C30 61.0277 38.9723 70 50 70C61.0277 70 70 61.0277 70 50ZM31.9984 50C31.9984 40.0734 40.0734 31.9984 50 31.9984C59.9266 31.9984 68.0016 40.0734 68.0016 50C68.0016 59.9266 59.9266 68.0016 50 68.0016C40.0734 68.0016 31.9984 59.9266 31.9984 50Z" fill="black"/>
<path d="M50.7098 59.3964L56.3297 53.7765C56.7212 53.385 56.7212 52.7569 56.3297 52.3654C55.9381 51.9739 55.3101 51.9739 54.9186 52.3654L51.0034 56.2806V41.3132C51.0034 40.7585 50.5548 40.3099 50.0001 40.3099C49.4455 40.3099 48.9969 40.7585 48.9969 41.3132V56.2724L45.0817 52.3572C44.6902 51.9657 44.0621 51.9657 43.6706 52.3572C43.2791 52.7487 43.2791 53.3768 43.6706 53.7683L49.2905 59.3882C49.4863 59.584 49.7391 59.6819 50.0001 59.6819C50.2611 59.6819 50.514 59.5921 50.7098 59.3964Z" fill="black"/>
</svg>
