<svg width="100" height="100" viewBox="0 0 100 100" fill="none" xmlns="http://www.w3.org/2000/svg">
<ellipse cx="49.9286" cy="50" rx="49.9286" ry="50" fill="#FDB415"/>
<path d="M69.1033 61.5665L62.9259 55.3885C61.6955 54.163 59.6579 54.2002 58.3846 55.474L55.2724 58.5855C55.0758 58.4771 54.8723 58.3639 54.6583 58.2438C52.693 57.1549 50.0031 55.6623 47.1726 52.8297C44.3337 49.9912 42.8397 47.2972 41.7475 45.3306C41.6322 45.1222 41.5218 44.9214 41.4127 44.7306L43.5014 42.645L44.5283 41.6168C45.8036 40.3412 45.8387 38.3042 44.6112 37.0752L38.4338 30.8964C37.2063 29.6691 35.1678 29.7063 33.8925 30.9819L32.1515 32.7329L32.1991 32.7801C31.6153 33.525 31.1275 34.3841 30.7645 35.3106C30.4298 36.1925 30.2215 37.034 30.1262 37.8773C29.3105 44.6395 32.4007 50.8196 40.7869 59.2059C52.3791 70.7974 61.721 69.9217 62.124 69.879C63.0017 69.7741 63.8429 69.5643 64.6978 69.2323C65.6162 68.8736 66.4748 68.3864 67.2192 67.8039L67.2572 67.8377L69.021 66.1106C70.2936 64.8353 70.3302 62.7975 69.1033 61.5665Z" fill="black"/>
</svg>
