<svg width="222" height="45" viewBox="0 0 222 45" fill="none" xmlns="http://www.w3.org/2000/svg">
<path d="M67.2775 21.696H64.2449L63.1368 18.6259H57.9463L56.8188 21.696H53.825L59.3654 7.5264H61.7566L67.2775 21.696ZM62.3009 16.225L60.5707 11.0098L58.8017 16.225H62.3009ZM78.3355 21.696H75.0307L71.1039 15.9298V21.696H68.3434V7.5264H73.0867C74.629 7.5264 75.8472 7.92 76.7415 8.7072C77.7005 9.53376 78.18 10.7146 78.18 12.2496C78.18 13.3648 77.8301 14.3357 77.1303 15.1622C76.4304 15.9888 75.5362 16.4546 74.4475 16.5595L78.3355 21.696ZM75.4779 12.348C75.4779 10.8261 74.5123 10.0651 72.5813 10.0651H71.1039V14.4734H72.5813C73.5144 14.4734 74.1883 14.3554 74.6031 14.1192C75.1863 13.8043 75.4779 13.2139 75.4779 12.348ZM87.3852 10.0651H84.6247V21.696H81.8059V10.0651H79.0454V7.5264H87.3852V10.0651Z" fill="#FDB415"/>
<path d="M93.0654 17.5042H88.0305V15.0442H93.0654V17.5042ZM109.411 14.5718C109.411 16.6448 108.711 18.3963 107.311 19.8264C105.911 21.2565 104.188 21.9715 102.14 21.9715C100.118 21.9715 98.401 21.2499 96.9884 19.8067C95.5757 18.3635 94.8694 16.6186 94.8694 14.5718C94.8694 12.5382 95.5822 10.813 97.0078 9.396C98.4334 7.96592 100.151 7.25088 102.159 7.25088C104.181 7.25088 105.892 7.95936 107.292 9.37632C108.704 10.7933 109.411 12.5251 109.411 14.5718ZM106.572 14.5522C106.572 13.2795 106.145 12.184 105.289 11.2656C104.434 10.3341 103.384 9.86832 102.14 9.86832C100.909 9.86832 99.859 10.3406 98.9907 11.2853C98.1353 12.2168 97.7077 13.3123 97.7077 14.5718C97.7077 15.8445 98.1353 16.9597 98.9907 17.9174C99.8461 18.8752 100.896 19.3541 102.14 19.3541C103.436 19.3541 104.505 18.8752 105.348 17.9174C106.164 16.999 106.572 15.8773 106.572 14.5522ZM110.586 17.3074H113.385C113.385 17.8846 113.534 18.3766 113.832 18.7834C114.156 19.2426 114.597 19.4722 115.154 19.4722C115.711 19.4722 116.159 19.295 116.496 18.9408C116.832 18.5734 117.001 18.1077 117.001 17.5435C117.001 16.9138 116.638 16.3627 115.912 15.8904C115.575 15.6542 114.94 15.3459 114.007 14.9654C111.972 14.1258 110.955 12.8662 110.955 11.1869C110.955 9.94048 111.389 8.95648 112.258 8.23488C113.074 7.57888 114.111 7.25088 115.368 7.25088C116.638 7.25088 117.649 7.61168 118.401 8.33328C119.152 9.05488 119.528 10.0586 119.528 11.3443H116.826C116.735 10.2554 116.217 9.71088 115.271 9.71088C114.221 9.71088 113.696 10.1898 113.696 11.1475C113.696 11.4755 113.839 11.8101 114.124 12.1512C114.409 12.4923 114.843 12.7941 115.426 13.0565C116.541 13.555 117.325 13.9486 117.779 14.2373C118.686 14.8014 119.282 15.4181 119.567 16.0872C119.736 16.4808 119.82 16.9531 119.82 17.5042C119.82 18.8949 119.392 19.9904 118.537 20.7907C117.694 21.5779 116.58 21.9715 115.193 21.9715C113.793 21.9715 112.672 21.5517 111.83 20.712C111 19.8592 110.586 18.7243 110.586 17.3074ZM134.911 17.268C134.354 18.7243 133.492 19.8723 132.325 20.712C131.172 21.5517 129.831 21.9715 128.301 21.9715C126.241 21.9715 124.504 21.2565 123.091 19.8264C121.692 18.3963 120.992 16.6382 120.992 14.5522C120.992 12.5054 121.692 10.7802 123.091 9.37632C124.504 7.95936 126.221 7.25088 128.243 7.25088C129.824 7.25088 131.204 7.67072 132.384 8.5104C133.576 9.35008 134.418 10.5243 134.911 12.0331H131.839C131.01 10.5899 129.805 9.86832 128.224 9.86832C126.966 9.86832 125.917 10.3275 125.074 11.2459C124.245 12.1512 123.83 13.2467 123.83 14.5325C123.83 15.8182 124.245 16.9334 125.074 17.8781C125.93 18.8621 126.986 19.3541 128.243 19.3541C129.837 19.3541 131.023 18.6587 131.801 17.268H134.911ZM148.834 21.696H145.802L144.694 18.6259H139.503L138.376 21.696H135.382L140.922 7.5264H143.313L148.834 21.696ZM143.858 16.225L142.128 11.0098L140.359 16.225H143.858ZM159.892 21.696H156.588L152.661 15.9298V21.696H149.9V7.5264H154.644C156.186 7.5264 157.404 7.92 158.298 8.7072C159.257 9.53376 159.737 10.7146 159.737 12.2496C159.737 13.3648 159.387 14.3357 158.687 15.1622C157.987 15.9888 157.093 16.4546 156.004 16.5595L159.892 21.696ZM157.035 12.348C157.035 10.8261 156.069 10.0651 154.138 10.0651H152.661V14.4734H154.138C155.071 14.4734 155.745 14.3554 156.16 14.1192C156.743 13.8043 157.035 13.2139 157.035 12.348Z" fill="black"/>
<path d="M61.0762 38.808H60.0021V34.625H55.908V38.808H54.834V29.5978H55.908V33.6017H60.0021V29.5978H61.0762V38.808ZM68.9355 38.808H67.9878V37.8358C67.3644 38.5863 66.5725 38.9615 65.6122 38.9615C64.6519 38.9615 63.8516 38.6332 63.2113 37.9765C62.5711 37.3113 62.251 36.4926 62.251 35.5205C62.251 34.5568 62.5711 33.7424 63.2113 33.0772C63.8516 32.412 64.6476 32.0794 65.5996 32.0794C66.5852 32.0794 67.3728 32.476 67.9625 33.2691V32.2457H68.9355V38.808ZM65.6501 33.0132C64.9846 33.0132 64.4202 33.2648 63.9569 33.768C63.502 34.2626 63.2745 34.851 63.2745 35.5332C63.2745 36.2155 63.502 36.8039 63.9569 37.2985C64.4118 37.7932 64.9762 38.0405 65.6501 38.0405C66.2903 38.0405 66.8379 37.7889 67.2928 37.2858C67.7561 36.7741 67.9878 36.1899 67.9878 35.5332C67.9878 34.8681 67.7603 34.2839 67.3054 33.7807C66.8589 33.2691 66.3072 33.0132 65.6501 33.0132ZM69.7107 32.2457H74.0196V33.1411H72.3516V38.808H71.3786V33.1411H69.7107V32.2457ZM79.0167 38.808H78.0564V35.3158L75.5797 38.808H74.4678L76.5021 36.0577C75.188 35.981 74.5309 35.367 74.5309 34.2157C74.5309 33.5931 74.7415 33.1028 75.1627 32.7446C75.5671 32.412 76.0809 32.2457 76.7043 32.2457H79.0167V38.808ZM78.0564 35.2902V33.1539H76.7549C75.9293 33.1539 75.5165 33.5036 75.5165 34.2029C75.5165 34.9278 75.9841 35.2902 76.9191 35.2902H78.0564ZM79.7292 32.2457H80.9043L83.5705 35.367V32.2457H84.5182V35.367L87.1844 32.2457H88.3596L85.6049 35.367L88.448 38.808H87.2097L84.5182 35.4309V38.808H83.5705V35.4309L80.879 38.808H79.6407L82.4838 35.367L79.7292 32.2457ZM94.2672 38.808H93.2942V35.8914H90.0215V38.808H89.0485V32.2457H90.0215V35.0088H93.2942V32.2457H94.2672V38.808ZM101.603 38.808H100.617V32.2457H101.603V38.808ZM95.6386 38.808V32.2457H96.5989V34.8809H97.8878C98.5196 34.8809 99.0124 35.0514 99.3662 35.3925C99.7284 35.7337 99.9095 36.2198 99.9095 36.8508C99.9095 37.4648 99.7116 37.9467 99.3157 38.2963C98.9197 38.6374 98.4143 38.808 97.7993 38.808H95.6386ZM96.5989 35.7891V37.8998H97.7109C98.5364 37.8998 98.9492 37.5501 98.9492 36.8508C98.9492 36.143 98.5406 35.7891 97.7235 35.7891H96.5989ZM109.311 35.853H103.675C103.726 36.5353 103.958 37.0683 104.37 37.452C104.783 37.8358 105.327 38.0277 106 38.0277C107.028 38.0277 107.736 37.6567 108.123 36.9148H109.223C108.515 38.2878 107.445 38.9743 106.013 38.9743C105.036 38.9743 104.231 38.646 103.6 37.9893C102.968 37.3327 102.652 36.5054 102.652 35.5077C102.652 34.5355 102.972 33.721 103.612 33.0644C104.261 32.3992 105.065 32.0666 106.026 32.0666C107.062 32.0666 107.879 32.4418 108.477 33.1923C109.033 33.8916 109.311 34.7785 109.311 35.853ZM103.701 34.9832H108.288C108.144 33.6784 107.378 33.026 105.988 33.026C105.39 33.026 104.889 33.2051 104.484 33.5633C104.08 33.9129 103.819 34.3862 103.701 34.9832ZM118.858 38.808H117.897V33.1539H114.726V38.808H113.766V32.2457H118.858V38.808ZM123.189 32.0538C124.124 32.0538 124.92 32.3907 125.577 33.0644C126.242 33.7296 126.575 34.5355 126.575 35.4821C126.575 36.4372 126.251 37.2602 125.602 37.9509C124.962 38.6332 124.17 38.9743 123.227 38.9743C122.292 38.9743 121.495 38.6374 120.838 37.9637C120.19 37.29 119.865 36.4799 119.865 35.5332C119.865 34.5952 120.186 33.7807 120.826 33.09C121.474 32.3992 122.262 32.0538 123.189 32.0538ZM125.59 35.5332C125.59 34.8084 125.371 34.2114 124.932 33.7424C124.503 33.2648 123.93 33.026 123.214 33.026C122.506 33.026 121.938 33.2605 121.508 33.7296C121.079 34.1986 120.864 34.7956 120.864 35.5205C120.864 36.2283 121.083 36.821 121.521 37.2985C121.959 37.7761 122.523 38.0149 123.214 38.0149C123.922 38.0149 124.494 37.7804 124.932 37.3113C125.371 36.8423 125.59 36.2496 125.59 35.5332ZM126.992 32.2457H131.301V33.1411H129.633V38.808H128.66V33.1411H126.992V32.2457ZM135.047 32.0538C135.982 32.0538 136.778 32.3907 137.436 33.0644C138.101 33.7296 138.434 34.5355 138.434 35.4821C138.434 36.4372 138.109 37.2602 137.461 37.9509C136.821 38.6332 136.029 38.9743 135.085 38.9743C134.15 38.9743 133.354 38.6374 132.697 37.9637C132.048 37.29 131.724 36.4799 131.724 35.5332C131.724 34.5952 132.044 33.7807 132.684 33.09C133.333 32.3992 134.121 32.0538 135.047 32.0538ZM137.448 35.5332C137.448 34.8084 137.229 34.2114 136.791 33.7424C136.361 33.2648 135.789 33.026 135.073 33.026C134.365 33.026 133.796 33.2605 133.367 33.7296C132.937 34.1986 132.722 34.7956 132.722 35.5205C132.722 36.2283 132.941 36.821 133.379 37.2985C133.817 37.7761 134.382 38.0149 135.073 38.0149C135.78 38.0149 136.353 37.7804 136.791 37.3113C137.229 36.8423 137.448 36.2496 137.448 35.5332ZM144.562 38.808H143.514L141.656 33.7552L141.618 33.7807L139.786 38.808H138.724L141.226 32.2457H142.06L144.562 38.808ZM150.211 32.2457L147.254 35.367L150.325 38.808H149.074L146.168 35.4309V38.808H145.207V32.2457H146.168V35.367L148.998 32.2457H150.211ZM156.393 38.808H155.42V33.6784L151.894 38.808H150.883V32.2457H151.856V37.3753L155.395 32.2457H156.393V38.808ZM165.876 36.9532C165.876 37.5586 165.657 38.0277 165.219 38.3603C164.832 38.6588 164.326 38.808 163.703 38.808H161.151V32.2457H163.602C164.175 32.2457 164.634 32.3949 164.979 32.6934C165.358 33.0175 165.548 33.4609 165.548 34.0238C165.548 34.6293 165.278 35.0685 164.739 35.3414V35.367C165.497 35.674 165.876 36.2027 165.876 36.9532ZM162.086 33.1156V35.0344H163.425C163.838 35.0344 164.137 34.9704 164.322 34.8425C164.541 34.689 164.651 34.4161 164.651 34.0238C164.651 33.7168 164.529 33.4823 164.284 33.3202C164.082 33.1838 163.821 33.1156 163.501 33.1156H162.086ZM162.086 35.853V37.9381H163.602C164.453 37.9381 164.878 37.597 164.878 36.9148C164.878 36.207 164.44 35.853 163.564 35.853H162.086ZM178.457 38.808V31.5805C178.457 31.5208 178.469 31.4057 178.495 31.2351C178.511 31.1243 178.52 30.9537 178.52 30.7235H178.482L175.399 38.808H174.577L171.494 30.7235H171.456C171.456 30.8173 171.465 30.958 171.482 31.1456C171.507 31.3247 171.519 31.4611 171.519 31.5549V38.808H170.471V29.5978H172.101L174.994 37.209L177.875 29.5978H179.505V38.808H178.457ZM183.987 32.0538C184.922 32.0538 185.718 32.3907 186.375 33.0644C187.041 33.7296 187.374 34.5355 187.374 35.4821C187.374 36.4372 187.049 37.2602 186.401 37.9509C185.76 38.6332 184.969 38.9743 184.025 38.9743C183.09 38.9743 182.294 38.6374 181.637 37.9637C180.988 37.29 180.664 36.4799 180.664 35.5332C180.664 34.5952 180.984 33.7807 181.624 33.09C182.273 32.3992 183.06 32.0538 183.987 32.0538ZM186.388 35.5332C186.388 34.8084 186.169 34.2114 185.731 33.7424C185.301 33.2648 184.728 33.026 184.012 33.026C183.305 33.026 182.736 33.2605 182.307 33.7296C181.877 34.1986 181.662 34.7956 181.662 35.5205C181.662 36.2283 181.881 36.821 182.319 37.2985C182.757 37.7761 183.322 38.0149 184.012 38.0149C184.72 38.0149 185.293 37.7804 185.731 37.3113C186.169 36.8423 186.388 36.2496 186.388 35.5332ZM194.425 36.6589C194.189 37.3753 193.797 37.9424 193.249 38.3603C192.71 38.7696 192.07 38.9743 191.329 38.9743C190.385 38.9743 189.598 38.6417 188.966 37.9765C188.342 37.3028 188.031 36.4884 188.031 35.5332C188.031 34.5696 188.347 33.7552 188.978 33.09C189.619 32.4163 190.411 32.0794 191.354 32.0794C192.087 32.0794 192.714 32.2756 193.237 32.6678C193.767 33.0516 194.155 33.5974 194.399 34.3052H193.363C192.992 33.4524 192.306 33.026 191.303 33.026C190.613 33.026 190.061 33.2648 189.648 33.7424C189.244 34.2114 189.042 34.8041 189.042 35.5205C189.042 36.2198 189.248 36.8082 189.661 37.2858C190.09 37.7889 190.646 38.0405 191.329 38.0405C191.8 38.0405 192.217 37.9211 192.58 37.6823C192.95 37.435 193.22 37.0939 193.388 36.6589H194.425ZM200.385 32.2457L197.428 35.367L200.499 38.808H199.248L196.342 35.4309V38.808H195.381V32.2457H196.342V35.367L199.172 32.2457H200.385ZM204.039 32.0538C204.974 32.0538 205.771 32.3907 206.428 33.0644C207.093 33.7296 207.426 34.5355 207.426 35.4821C207.426 36.4372 207.101 37.2602 206.453 37.9509C205.813 38.6332 205.021 38.9743 204.077 38.9743C203.142 38.9743 202.346 38.6374 201.689 37.9637C201.04 37.29 200.716 36.4799 200.716 35.5332C200.716 34.5952 201.036 33.7807 201.676 33.09C202.325 32.3992 203.113 32.0538 204.039 32.0538ZM206.44 35.5332C206.44 34.8084 206.221 34.2114 205.783 33.7424C205.354 33.2648 204.781 33.026 204.065 33.026C203.357 33.026 202.788 33.2605 202.359 33.7296C201.929 34.1986 201.714 34.7956 201.714 35.5205C201.714 36.2283 201.933 36.821 202.371 37.2985C202.809 37.7761 203.374 38.0149 204.065 38.0149C204.772 38.0149 205.345 37.7804 205.783 37.3113C206.221 36.8423 206.44 36.2496 206.44 35.5332ZM213.163 36.9532C213.163 37.5586 212.944 38.0277 212.506 38.3603C212.118 38.6588 211.613 38.808 210.989 38.808H208.437V32.2457H210.888C211.461 32.2457 211.92 32.3949 212.266 32.6934C212.645 33.0175 212.834 33.4609 212.834 34.0238C212.834 34.6293 212.565 35.0685 212.025 35.3414V35.367C212.784 35.674 213.163 36.2027 213.163 36.9532ZM209.372 33.1156V35.0344H210.711C211.124 35.0344 211.423 34.9704 211.608 34.8425C211.827 34.689 211.937 34.4161 211.937 34.0238C211.937 33.7168 211.815 33.4823 211.571 33.3202C211.368 33.1838 211.107 33.1156 210.787 33.1156H209.372ZM209.372 35.853V37.9381H210.888C211.739 37.9381 212.164 37.597 212.164 36.9148C212.164 36.207 211.726 35.853 210.85 35.853H209.372ZM220.53 35.853H214.894C214.945 36.5353 215.177 37.0683 215.589 37.452C216.002 37.8358 216.546 38.0277 217.22 38.0277C218.247 38.0277 218.955 37.6567 219.342 36.9148H220.442C219.734 38.2878 218.664 38.9743 217.232 38.9743C216.255 38.9743 215.45 38.646 214.819 37.9893C214.187 37.3327 213.871 36.5054 213.871 35.5077C213.871 34.5355 214.191 33.721 214.831 33.0644C215.48 32.3992 216.284 32.0666 217.245 32.0666C218.281 32.0666 219.098 32.4418 219.696 33.1923C220.252 33.8916 220.53 34.7785 220.53 35.853ZM214.92 34.9832H219.507C219.363 33.6784 218.597 33.026 217.207 33.026C216.609 33.026 216.108 33.2051 215.703 33.5633C215.299 33.9129 215.038 34.3862 214.92 34.9832Z" fill="#666766"/>
<path d="M43.937 21.9685C43.937 34.105 34.1057 43.937 21.9685 43.937C9.83129 43.937 0 34.105 0 21.9685C0 9.83129 9.83129 0 21.9685 0C34.1057 0 43.937 9.83129 43.937 21.9685Z" fill="#3E86FF" fill-opacity="0.4"/>
<path d="M38.622 21.9685C38.622 31.1607 31.1669 38.6221 21.9685 38.6221C12.7701 38.6221 5.31494 31.1607 5.31494 21.9685C5.31494 12.777 12.7701 5.31497 21.9685 5.31497C31.1669 5.31497 38.622 12.777 38.622 21.9685Z" fill="#3E86FF" fill-opacity="0.6"/>
<path d="M33.307 21.9685C33.307 28.2246 28.2322 33.3071 21.9685 33.3071C15.7047 33.3071 10.6299 28.2246 10.6299 21.9685C10.6299 15.7123 15.7047 10.6299 21.9685 10.6299C28.2322 10.6299 33.307 15.7123 33.307 21.9685Z" fill="#3E86FF"/>
<path d="M27.6377 42.874V43.5827H14.8818V37.9148H27.6377V42.874Z" fill="#656D78"/>
<path d="M14.883 43.5827H14.8816H27.6361C28.0257 43.5827 28.3448 43.9017 28.3448 44.2913V45H14.1743V44.2913C14.1743 43.9017 14.4934 43.5827 14.883 43.5827Z" fill="#656D78"/>
<path d="M21.2598 2.48239C22.4363 2.48239 23.3858 3.39659 23.3858 4.77862C23.3858 5.44403 23.0882 6.08245 22.6771 6.57069C22.2376 7.09526 21.6778 7.44233 21.2598 7.44233C20.8418 7.44233 20.2819 7.09526 19.8425 6.57069C19.4314 6.08245 19.1338 5.44403 19.1338 4.77862C19.1338 3.39659 20.0833 2.48239 21.2598 2.48239Z" fill="#FFCE54"/>
<path d="M25.5113 9.569L22.6767 8.15168V6.57138C22.2372 7.09596 21.6774 7.44302 21.2594 7.44302C20.8414 7.44302 20.2815 7.09596 19.8421 6.57138V8.15168L17.0074 9.569C15.5901 11.0431 16.2987 15.947 16.2987 15.947C16.2987 16.7328 16.9296 17.3643 17.7161 17.3643C17.7161 17.3643 17.7161 17.3715 18.4247 17.3643L18.4389 18.0729V19.4903C17.0216 22.3249 19.1971 27.8603 19.1476 27.9942C17.8514 31.1763 19.8562 33.6635 19.8562 33.6635V35.7895H19.8421C19.4524 35.7895 19.1334 36.1085 19.1334 36.4981V37.2068H23.3854V36.4981C23.3854 36.1085 23.0663 35.7895 22.6767 35.7895V33.6635C22.6767 33.6635 24.675 31.1763 23.3854 27.9942C23.3286 27.8603 25.5113 22.3249 24.094 19.4903V17.3643H24.8027C25.5892 17.3643 26.22 16.7328 26.22 15.947C26.22 15.947 26.9287 11.0431 25.5113 9.569Z" fill="#FFCE54"/>
<path d="M23.3857 36.8525C23.1902 36.8525 23.0314 36.6936 23.0314 36.4981C23.0314 36.3033 22.8719 36.1438 22.6771 36.1438C22.4816 36.1438 22.3228 35.985 22.3228 35.7895C22.3228 35.594 22.4816 35.4352 22.6771 35.4352C23.2633 35.4352 23.7401 35.912 23.7401 36.4981C23.7401 36.6936 23.5813 36.8525 23.3857 36.8525Z" fill="#F6BB42"/>
<path d="M19.1336 36.8525C18.9381 36.8525 18.7793 36.6936 18.7793 36.4981C18.7793 35.912 19.2561 35.4352 19.8423 35.4352C20.0378 35.4352 20.1966 35.594 20.1966 35.7895C20.1966 35.985 20.0378 36.1438 19.8423 36.1438C19.6475 36.1438 19.488 36.3033 19.488 36.4981C19.488 36.6936 19.3291 36.8525 19.1336 36.8525Z" fill="#F6BB42"/>
<path d="M21.2596 7.79734C20.7337 7.79734 20.0869 7.41464 19.571 6.79906C19.0599 6.19213 18.7793 5.47516 18.7793 4.77861C18.7793 3.26752 19.8457 2.12805 21.2596 2.12805C22.6735 2.12805 23.7399 3.26752 23.7399 4.77861C23.7399 5.47447 23.4593 6.19213 22.9482 6.79975C22.4323 7.41464 21.7856 7.79734 21.2596 7.79734ZM21.2596 2.83671C20.2333 2.83671 19.488 3.65299 19.488 4.77861C19.488 5.30803 19.7098 5.8634 20.1136 6.34265C20.5423 6.85546 21.0087 7.08868 21.2596 7.08868C21.5105 7.08868 21.9769 6.85546 22.4057 6.34334C22.8095 5.8634 23.0313 5.30803 23.0313 4.77861C23.0313 3.65299 22.2859 2.83671 21.2596 2.83671Z" fill="#F6BB42"/>
<path d="M18.4253 17.7186C18.2381 17.7186 18.0824 17.5726 18.0717 17.3833C18.061 17.1944 18.2015 17.0321 18.3869 17.012C18.4302 16.9909 18.5267 16.9078 18.6053 16.84C18.998 16.5026 19.6541 15.9393 21.1807 15.5878C21.2081 15.5812 21.2389 15.5791 21.2634 15.5784C21.4385 15.5784 22.323 15.5269 22.323 14.5296C22.323 14.3836 22.3032 14.1265 22.1693 14.0427C22.0019 13.9372 21.6205 14.0372 21.4174 14.1386C20.5088 14.6479 18.5471 14.8718 18.4644 14.8819C18.3637 14.8905 18.2637 14.8614 18.1887 14.794C18.1136 14.7265 18.0703 14.631 18.0703 14.5296V13.8209C18.0703 13.6254 18.2291 13.4666 18.4246 13.4666C18.6201 13.4666 18.779 13.6254 18.779 13.8209V14.1244C19.3793 14.0358 20.5115 13.8337 21.0863 13.5119C21.1884 13.4604 21.9707 13.086 22.5406 13.4396C22.8666 13.641 23.0309 14.0081 23.0309 14.5296C23.0309 15.0462 22.8714 15.4642 22.5583 15.7756C22.1081 16.2213 21.4832 16.2795 21.3039 16.2864C19.9724 16.5981 19.406 17.0857 19.0665 17.3777C18.862 17.5535 18.6855 17.7051 18.4437 17.7179C18.4388 17.7186 18.4316 17.7186 18.4253 17.7186Z" fill="#F6BB42"/>
<path d="M24.0942 15.5926H23.3856C23.1901 15.5926 23.0312 15.4338 23.0312 15.2383C23.0312 15.0428 23.1901 14.884 23.3856 14.884H23.7399V13.821C23.7399 13.6255 23.8987 13.4666 24.0942 13.4666C24.2897 13.4666 24.4486 13.6255 24.4486 13.821V15.2383C24.4486 15.4338 24.2897 15.5926 24.0942 15.5926Z" fill="#F6BB42"/>
<path d="M21.2601 36.1438C21.0646 36.1438 20.9058 35.985 20.9058 35.7895V18.0729C20.9058 17.8774 21.0646 17.7186 21.2601 17.7186C21.4556 17.7186 21.6144 17.8774 21.6144 18.0729V35.7895C21.6144 35.985 21.4556 36.1438 21.2601 36.1438Z" fill="#F6BB42"/>
<path d="M22.6771 36.1438C22.4816 36.1438 22.3228 35.985 22.3228 35.7895V33.6635C22.3228 33.5835 22.3504 33.5046 22.3999 33.4417C22.4757 33.3462 24.2498 31.069 23.0577 28.1267C22.9996 27.99 23.0165 27.9326 23.1857 27.3848C23.6076 26.0204 24.8882 21.8699 23.7778 19.6484C23.7536 19.5996 23.7401 19.5449 23.7401 19.4895V18.0722C23.7401 17.8767 23.8989 17.7179 24.0944 17.7179C24.2899 17.7179 24.4487 17.8767 24.4487 18.0722V19.4082C25.6221 21.8934 24.346 26.0277 23.8633 27.5938C23.8138 27.7554 23.774 27.8786 23.7529 27.9582C24.8979 30.9195 23.4055 33.2624 23.0314 33.7818V35.7895C23.0314 35.985 22.8726 36.1438 22.6771 36.1438Z" fill="#F6BB42"/>
<path d="M19.8571 36.1438C19.6616 36.1438 19.5028 35.985 19.5028 35.7895V33.7818C19.128 33.2631 17.629 30.9181 18.7806 27.9596C18.7595 27.8852 18.7225 27.7696 18.6772 27.6208C18.2363 26.2014 16.9055 21.9103 18.0855 19.4082V18.0722C18.0855 17.8767 18.2443 17.7179 18.4398 17.7179C18.6353 17.7179 18.7941 17.8767 18.7941 18.0722V19.4895C18.7941 19.5442 18.7806 19.5985 18.7564 19.6484C17.6391 21.8834 18.9294 26.0433 19.354 27.4104C19.5142 27.9271 19.5311 27.9814 19.4806 28.1167C18.2733 31.0818 20.1149 33.4168 20.1336 33.441C20.1838 33.504 20.2114 33.5822 20.2114 33.6628V35.7888C20.2114 35.985 20.0526 36.1438 19.8571 36.1438Z" fill="#F6BB42"/>
<path d="M22.6771 18.4273H20.5653C20.3698 18.4273 20.2109 18.2684 20.2109 18.0729C20.2109 17.8774 20.3698 17.7186 20.5653 17.7186H22.6771C22.8726 17.7186 23.0314 17.8774 23.0314 18.0729C23.0314 18.2684 22.8726 18.4273 22.6771 18.4273Z" fill="#F6BB42"/>
<path d="M20.5654 18.4273C19.9793 18.4273 19.5024 17.9504 19.5024 17.3643C19.5024 17.1688 19.6613 17.0099 19.8568 17.0099C20.0523 17.0099 20.2111 17.1688 20.2111 17.3643C20.2111 17.5629 20.3672 17.7186 20.5654 17.7186C20.7609 17.7186 20.9198 17.8774 20.9198 18.0729C20.9198 18.2684 20.7609 18.4273 20.5654 18.4273Z" fill="#F6BB42"/>
<path d="M21.9688 17.7186C21.3826 17.7186 20.9058 17.2418 20.9058 16.6556C20.9058 16.4601 21.0646 16.3013 21.2601 16.3013C21.4556 16.3013 21.6144 16.4601 21.6144 16.6556C21.6144 16.8504 21.7739 17.0099 21.9688 17.0099C22.1643 17.0099 22.3231 17.1688 22.3231 17.3643C22.3231 17.5598 22.1643 17.7186 21.9688 17.7186Z" fill="#F6BB42"/>
<path d="M25.5117 9.92333C25.4584 9.92333 25.4048 9.91122 25.3529 9.88596L22.5183 8.46863C22.3985 8.40842 22.3228 8.28558 22.3228 8.15167V6.57137C22.3228 6.37587 22.4816 6.21704 22.6771 6.21704C22.8726 6.21704 23.0314 6.37587 23.0314 6.57137V7.93333L25.6706 9.25238C25.8456 9.34027 25.9162 9.55273 25.8294 9.72782C25.7661 9.85101 25.6415 9.92333 25.5117 9.92333Z" fill="#F6BB42"/>
<path d="M22.5669 17.7214C22.325 17.7214 22.1133 17.7207 21.9631 17.7186C21.7672 17.7158 21.6115 17.5549 21.6143 17.3587C21.6171 17.1639 21.7569 17.0044 21.9742 17.0099C22.2728 17.0141 22.814 17.0127 23.3448 17.0113L24.8033 17.0099C24.9988 17.0099 25.1576 17.1688 25.1576 17.3643C25.1576 17.5598 24.9988 17.7186 24.8033 17.7186L23.3462 17.72C23.0783 17.7207 22.8084 17.7214 22.5669 17.7214Z" fill="#F6BB42"/>
<path d="M24.8031 17.7186C24.6076 17.7186 24.4487 17.5598 24.4487 17.3643C24.4487 17.1688 24.6076 17.0099 24.8031 17.0099C25.3892 17.0099 25.8661 16.5331 25.8661 15.947C25.8661 15.7514 26.0249 15.5926 26.2204 15.5926C26.4159 15.5926 26.5747 15.7514 26.5747 15.947C26.5747 16.9241 25.7802 17.7186 24.8031 17.7186Z" fill="#F6BB42"/>
<path d="M26.2211 16.3013C26.2042 16.3013 26.1872 16.2999 26.1703 16.2978C25.9765 16.2694 25.8419 16.0902 25.8696 15.8968C26.0602 14.5801 26.3197 10.9213 25.2567 9.81502C25.1214 9.67384 25.1249 9.44927 25.2664 9.31397C25.4069 9.17867 25.6329 9.18283 25.7675 9.324C27.2876 10.9043 26.6018 15.7912 26.572 15.9982C26.5457 16.1739 26.3941 16.3013 26.2211 16.3013Z" fill="#F6BB42"/>
<path d="M17.0078 9.92332C16.878 9.92332 16.7534 9.851 16.6912 9.72781C16.604 9.55272 16.6746 9.34026 16.8496 9.25237L19.4888 7.93332V6.57067C19.4888 6.37517 19.6476 6.21634 19.8431 6.21634C20.0386 6.21634 20.1974 6.37517 20.1974 6.57067V8.15097C20.1974 8.28488 20.1217 8.40738 20.0019 8.46793L17.1673 9.88525C17.1147 9.91121 17.0611 9.92332 17.0078 9.92332Z" fill="#F6BB42"/>
<path d="M17.9892 17.7221C17.574 17.7221 17.5557 17.7037 17.4678 17.6165L17.7166 17.3643H18.0709H17.7166L17.7449 17.0113C17.7754 17.0134 17.8986 17.0148 18.4218 17.0099H18.4252C18.6193 17.0099 18.7775 17.1667 18.7796 17.3608C18.7816 17.5563 18.6242 17.7165 18.4287 17.7186C18.246 17.7207 18.1027 17.7221 17.9892 17.7221Z" fill="#F6BB42"/>
<path d="M17.7165 17.7186C16.7393 17.7186 15.9448 16.9241 15.9448 15.947C15.9448 15.7514 16.1037 15.5926 16.2992 15.5926C16.4947 15.5926 16.6535 15.7514 16.6535 15.947C16.6535 16.5331 17.1303 17.0099 17.7165 17.0099C17.912 17.0099 18.0708 17.1688 18.0708 17.3643C18.0708 17.5598 17.912 17.7186 17.7165 17.7186Z" fill="#F6BB42"/>
<path d="M16.2985 16.3013C16.1255 16.3013 15.974 16.1739 15.9484 15.9975C15.9186 15.7905 15.2328 10.9036 16.7529 9.32296C16.8882 9.18282 17.1141 9.17797 17.2539 9.31327C17.3948 9.44856 17.3989 9.67314 17.2636 9.81431C16.2006 10.9206 16.4601 14.5794 16.6508 15.8961C16.6785 16.0895 16.5446 16.2687 16.3501 16.2971C16.3325 16.2999 16.3155 16.3013 16.2985 16.3013Z" fill="#F6BB42"/>
<path d="M21.9686 21.9706C21.7731 21.9706 21.6143 21.8117 21.6143 21.6162C21.6143 21.4207 21.7731 21.2619 21.9686 21.2619C22.3831 21.2619 22.4966 21.0373 22.6949 20.4415C22.8793 19.8906 23.1302 19.1359 24.0946 19.1359C24.2901 19.1359 24.4489 19.2948 24.4489 19.4903C24.4489 19.6858 24.2901 19.8446 24.0946 19.8446C23.68 19.8446 23.5665 20.0692 23.3683 20.6654C23.1838 21.2159 22.9323 21.9706 21.9686 21.9706Z" fill="#F6BB42"/>
<path d="M20.5512 21.9706C19.5889 21.9706 19.3367 21.2166 19.1516 20.6654C18.954 20.073 18.8412 19.8487 18.4353 19.8446C18.2401 19.8425 18.0765 19.683 18.0772 19.4882C18.0778 19.2941 18.2297 19.1359 18.4246 19.1359H18.4387C19.391 19.146 19.6405 19.8944 19.8242 20.4415C20.0225 21.0373 20.1374 21.2619 20.5505 21.2619C20.7461 21.2619 20.9049 21.4207 20.9049 21.6162C20.9049 21.8117 20.7467 21.9706 20.5512 21.9706Z" fill="#F6BB42"/>
<path d="M24.8028 40.3944H17.7161C17.5206 40.3944 17.3618 40.2356 17.3618 40.0401C17.3618 39.8446 17.5206 39.6857 17.7161 39.6857H24.8028C24.9983 39.6857 25.1571 39.8446 25.1571 40.0401C25.1571 40.2356 24.9983 40.3944 24.8028 40.3944Z" fill="#434A54"/>
<path d="M23.3856 41.8117H19.1336C18.9381 41.8117 18.7793 41.6529 18.7793 41.4574C18.7793 41.2619 18.9381 41.1031 19.1336 41.1031H23.3856C23.5811 41.1031 23.7399 41.2619 23.7399 41.4574C23.7399 41.6529 23.5811 41.8117 23.3856 41.8117Z" fill="#434A54"/>
<path d="M15.5905 36.4975H26.9291C27.3187 36.4975 27.6377 36.8165 27.6377 37.2061V37.9148H14.8818V37.2061C14.8818 36.8165 15.2009 36.4975 15.5905 36.4975Z" fill="#F6BB42"/>
<path d="M27.6367 38.2691H14.8822C14.6867 38.2691 14.5278 38.1103 14.5278 37.9148C14.5278 37.7193 14.6867 37.5605 14.8822 37.5605H27.6367C27.8322 37.5605 27.991 37.7193 27.991 37.9148C27.991 38.1103 27.8322 38.2691 27.6367 38.2691Z" fill="#656D78"/>
</svg>
