<svg width="100" height="100" viewBox="0 0 100 100" fill="none" xmlns="http://www.w3.org/2000/svg">
<circle cx="50" cy="50" r="50" fill="#FDB415"/>
<g clip-path="url(#clip0)">
<path d="M47.7137 30.1281C38.6921 31.1345 31.365 38.2973 30.1785 47.2968C28.4974 60.05 38.9237 70.8996 51.5527 69.9413C56.1983 69.5887 60.5467 67.5127 63.9539 64.3351L64.2466 64.0623C64.5832 63.7484 64.6016 63.2211 64.2877 62.8845L63.1506 61.6652C62.8367 61.3286 62.3094 61.3102 61.9727 61.6241L61.3631 62.1926C57.5733 65.7264 52.3706 67.3162 47.1222 66.4224C39.6835 65.1555 33.9651 58.8402 33.3842 51.3168C32.6162 41.3681 40.6412 33.0544 50.4941 33.3407C59.5791 33.6049 66.6667 41.3576 66.6667 50.4464V51.6669C66.6667 53.6149 64.9881 55.1772 63.0009 54.9841C61.2692 54.8157 60 53.2592 60 51.5192V44.167C60 43.7067 59.6269 43.3336 59.1667 43.3336H57.5C57.1654 43.3336 56.8812 43.5336 56.7486 43.8182C55.0717 41.9891 52.6713 40.8336 50 40.8336C44.9455 40.8336 40.8334 44.9457 40.8334 50.0003C40.8334 55.0548 44.9455 59.167 50 59.167C53.184 59.167 55.9915 57.5335 57.6353 55.0623C58.873 57.1307 61.1725 58.4937 63.79 58.3183C67.3293 58.0812 70 54.9788 70 51.4316V50.0003C70 38.2192 59.7602 28.7842 47.7137 30.1281ZM50 55.8336C46.7838 55.8336 44.1667 53.2164 44.1667 50.0003C44.1667 46.7841 46.7838 44.1669 50 44.1669C53.2162 44.1669 55.8334 46.7841 55.8334 50.0003C55.8334 53.2164 53.2162 55.8336 50 55.8336Z" fill="black"/>
</g>
<defs>
<clipPath id="clip0">
<rect x="30" y="30" width="40" height="40" fill="white"/>
</clipPath>
</defs>
</svg>
