<svg width="52" height="60" viewBox="0 0 52 60" fill="none" xmlns="http://www.w3.org/2000/svg">
<path d="M51.0336 16.2795L51.0318 16.2328C51.0057 15.6565 50.9883 15.0468 50.9778 14.3684C50.9288 11.0601 48.2989 8.32361 44.9902 8.13867C38.0918 7.75369 32.7552 5.50425 28.1954 1.05983L28.1565 1.02276C26.6692 -0.340919 24.4257 -0.340919 22.938 1.02276L22.8991 1.05983C18.3393 5.50425 13.0027 7.75369 6.10424 8.13913C2.79599 8.32361 0.165689 11.0601 0.116708 14.3688C0.106637 15.0426 0.0887845 15.6524 0.0626921 16.2328L0.0599456 16.3413C-0.0741788 23.3758 -0.240804 32.1305 2.68796 40.0768C4.29837 44.4466 6.73733 48.2451 9.93663 51.3675C13.5804 54.9234 18.353 57.7464 24.1218 59.7578C24.3095 59.8232 24.5045 59.8764 24.7031 59.9162C24.9833 59.972 25.2653 59.9999 25.5472 59.9999C25.8292 59.9999 26.1117 59.972 26.3914 59.9162C26.59 59.8764 26.7864 59.8228 26.975 59.7569C32.7369 57.7418 37.5045 54.9174 41.145 51.362C44.343 48.2387 46.7819 44.4392 48.3937 40.0685C51.3335 32.0984 51.1673 23.3272 51.0336 16.2795ZM45.0905 38.8504C42.0015 47.2256 35.6958 52.9774 25.8132 56.4335C25.778 56.4454 25.7404 56.456 25.7015 56.4637C25.5994 56.4839 25.4955 56.4839 25.3921 56.4633C25.3536 56.4555 25.3161 56.4454 25.2813 56.4335C15.3881 52.9838 9.07832 47.2352 5.99163 38.8596C3.29221 31.5349 3.4451 23.4984 3.58014 16.4086L3.58105 16.3692C3.60852 15.76 3.62683 15.1218 3.6369 14.4205C3.65887 12.9516 4.82891 11.7362 6.30062 11.6543C10.2044 11.4364 13.634 10.682 16.7852 9.34808C19.9323 8.01599 22.7274 6.13825 25.3293 3.60774C25.4616 3.49605 25.6333 3.49559 25.7651 3.60774C28.3675 6.13825 31.1626 8.01599 34.3093 9.34808C37.4605 10.682 40.8901 11.4364 44.7943 11.6543C46.266 11.7362 47.4361 12.9516 47.4576 14.421C47.4681 15.126 47.4864 15.7641 47.5139 16.3692C47.6485 23.4673 47.7977 31.5102 45.0905 38.8504Z" fill="#3E86FF"/>
<path d="M25.5461 15.0482C17.3009 15.0482 10.5933 21.7563 10.5933 30.0011C10.5933 38.2463 17.3009 44.9544 25.5461 44.9544C33.7909 44.9544 40.499 38.2463 40.499 30.0011C40.499 21.7563 33.7909 15.0482 25.5461 15.0482ZM25.5461 41.4333C19.2422 41.4333 14.1139 36.3049 14.1139 30.0011C14.1139 23.6972 19.2422 18.5689 25.5461 18.5689C31.8495 18.5689 36.9778 23.6972 36.9778 30.0011C36.9778 36.3049 31.8495 41.4333 25.5461 41.4333Z" fill="#3E86FF"/>
<path d="M29.8437 25.3589L22.8985 32.3041L21.0134 30.419C20.3258 29.7315 19.2112 29.7315 18.5236 30.419C17.8365 31.1066 17.8365 32.2212 18.5236 32.9083L21.6538 36.0385C21.9976 36.3823 22.448 36.554 22.8985 36.554C23.3489 36.554 23.7994 36.3823 24.1431 36.0385L32.3334 27.8482C33.0205 27.1607 33.0205 26.046 32.3334 25.3589C31.6459 24.6709 30.5312 24.6709 29.8437 25.3589Z" fill="#3E86FF"/>
</svg>
