<svg width="50" height="60" viewBox="0 0 50 60" fill="none" xmlns="http://www.w3.org/2000/svg">
<path d="M49.7557 53.41L41.8123 34.2332C41.61 33.7448 41.0499 33.5126 40.5614 33.715C40.0728 33.9175 39.8408 34.4775 40.0432 34.966L47.2242 52.3023L40.6741 50.4043C40.2442 50.2796 39.785 50.4698 39.5691 50.8621L36.2794 56.8357L28.5743 38.2337C37.4674 36.5187 44.2058 28.678 44.2058 19.2918C44.2059 8.6543 35.5518 0 24.9143 0C14.2768 0 5.62249 8.6543 5.62249 19.2918C5.62249 23.6004 7.04258 27.5834 9.439 30.7981L0.072877 53.41C-0.0679316 53.75 -0.00142095 54.1407 0.244068 54.4149C0.48943 54.6891 0.870494 54.7984 1.22398 54.696L8.9516 52.4567L12.8325 59.5044C13.0015 59.8112 13.3236 60 13.6709 60C13.6885 60 13.7063 59.9995 13.724 59.9986C14.0916 59.9782 14.4148 59.749 14.5557 59.4089L21.9773 41.4915C22.1797 41.003 21.9477 40.4429 21.4592 40.2406C20.9706 40.0383 20.4106 40.2702 20.2082 40.7588L13.5489 56.8357L10.2595 50.8621C10.0435 50.4698 9.58403 50.2796 9.15432 50.4043L2.60437 52.3023L10.8253 32.4551C14.3484 36.2237 19.3606 38.5834 24.9143 38.5834C25.4876 38.5834 26.0547 38.5568 26.6153 38.5076L35.273 59.4089C35.4138 59.749 35.7371 59.9782 36.1045 59.9985C36.1224 59.9995 36.14 60 36.1578 60C36.5051 60 36.8272 59.8112 36.9961 59.5044L40.8771 52.4567L48.6047 54.696C48.9585 54.7985 49.3391 54.6891 49.5846 54.4149C49.8301 54.1407 49.8965 53.75 49.7557 53.41ZM7.53739 19.2918C7.53739 9.71017 15.3327 1.91489 24.9143 1.91489C34.4959 1.91489 42.291 9.71017 42.291 19.2918C42.291 28.8734 34.4959 36.6686 24.9143 36.6686C15.3327 36.6686 7.53739 28.8734 7.53739 19.2918Z" fill="#3E86FF"/>
<path d="M35.9773 15.6971C35.8671 15.3578 35.5771 15.1078 35.2251 15.0487L28.7825 13.9676L25.7635 8.17452C25.5986 7.85806 25.2714 7.65955 24.9144 7.65955C24.5576 7.65955 24.2303 7.85806 24.0654 8.17452L21.0462 13.9676L14.6038 15.0487C14.2518 15.1077 13.9619 15.3577 13.8516 15.6971C13.7413 16.0366 13.8289 16.4091 14.079 16.6638L18.6555 21.3252L17.693 27.7866C17.6404 28.1396 17.7885 28.4924 18.0773 28.7023C18.3658 28.9119 18.7473 28.9437 19.0667 28.7848L24.9144 25.8726L30.762 28.7848C30.8972 28.8521 31.0432 28.8852 31.1888 28.8852C31.3875 28.8852 31.585 28.8235 31.7516 28.7024C32.0404 28.4926 32.1885 28.1397 32.1359 27.7867L31.1735 21.3254L35.75 16.6638C36 16.4091 36.0876 16.0366 35.9773 15.6971ZM29.4729 20.324C29.2625 20.5384 29.1649 20.8389 29.2092 21.1358L29.9713 26.2516L25.3413 23.946C25.2068 23.8791 25.0607 23.8455 24.9144 23.8455C24.7683 23.8455 24.622 23.879 24.4877 23.946L19.8577 26.2516L20.6198 21.1358C20.6641 20.8389 20.5665 20.5382 20.3561 20.324L16.7325 16.6331L21.8334 15.777C22.1295 15.7274 22.3852 15.5416 22.524 15.2753L24.9144 10.6887L27.3049 15.2755C27.4438 15.5418 27.6993 15.7275 27.9955 15.7772L33.0965 16.6332L29.4729 20.324Z" fill="#3E86FF"/>
<path d="M39.4178 20.2576C38.8935 20.1875 38.4122 20.5567 38.3429 21.081C37.4548 27.784 31.6816 32.8389 24.9141 32.8389C17.4443 32.8389 11.367 26.7618 11.367 19.2918C11.367 11.8218 17.4443 5.74473 24.9141 5.74473C31.6818 5.74473 37.4548 10.7995 38.3429 17.5027C38.4122 18.027 38.8944 18.3964 39.4178 18.3261C39.9419 18.2566 40.3107 17.7754 40.2411 17.2512C39.2275 9.59979 32.6383 3.82983 24.9141 3.82983C16.3884 3.82983 9.45215 10.766 9.45215 19.2918C9.45215 27.8177 16.3884 34.7537 24.9141 34.7537C32.6383 34.7537 39.2275 28.9837 40.2412 21.3323C40.3107 20.8083 39.942 20.327 39.4178 20.2576Z" fill="#3E86FF"/>
</svg>
